# xmcd
#
# Track frame offsets:
#	150
#	25220
#	53942
#	84321
#	118562
#	137050
#	154245
#
# Disc length: 2542 seconds
#
# Revision: 0
# Processed by: cddbd v1.5.2PL0 Copyright (c) Steve Scherf et al.
# Submitted via: audiograbber 1.83.01
#
DISCID=5409ec07
DTITLE=Grateful Dead - 89-05-06 Frost Amphitheatre, Palo Alto CA
DYEAR=1900
DGENRE=
TTITLE0=Let The Good Times Roll
TTITLE1=Hey Pocky Way
TTITLE2=Samson and Delilah
TTITLE3=Ship Of Fools
TTITLE4=Playing In The Band
TTITLE5=Playing Jam
TTITLE6=Eyes Of The World
EXTD=
EXTT0=
EXTT1=
EXTT2=
EXTT3=
EXTT4=
EXTT5=
EXTT6=
PLAYORDER=
